<?xml version="1.0" encoding="UTF-8"?>
<!DOCTYPE svg PUBLIC "-//W3C//DTD SVG 1.1//EN" "http://www.w3.org/Graphics/SVG/1.1/DTD/svg11.dtd">
<!-- Creator: CorelDRAW -->
<svg xmlns="http://www.w3.org/2000/svg" xml:space="preserve" width="6.82666in" height="6.82666in" style="shape-rendering:geometricPrecision; text-rendering:geometricPrecision; image-rendering:optimizeQuality; fill-rule:evenodd; clip-rule:evenodd"
viewBox="0 0 6.82666 6.82666"
 xmlns:xlink="http://www.w3.org/1999/xlink">
 <defs>
  <style type="text/css">
    .fil2 {fill:none}
    .fil1 {fill:#64B5F6}
    .fil0 {fill:#424242;fill-rule:nonzero}
  </style>
 </defs>
 <g id="Layer_x0020_1">
  <metadata id="CorelCorpID_0Corel-Layer"/>
  <path class="fil0" d="M1.09712 4.75447c0.200618,0.482555 0.307476,0.662673 0.352654,0.64389 0.15687,-0.0652165 0.217591,-1.02926 0.278303,-1.99329 0.065878,-1.0461 0.131764,-2.09221 0.440476,-2.22056 0.19715,-0.0819606 0.424484,0.129307 0.697689,0.786445l-0.243791 0.101236c-0.200618,-0.482551 -0.30748,-0.662673 -0.352661,-0.64389 -0.15687,0.0652205 -0.217587,1.02926 -0.278299,1.9933 -0.065878,1.0461 -0.131776,2.09221 -0.440476,2.22055 -0.197157,0.0819685 -0.424484,-0.129303 -0.697685,-0.786445l0.243791 -0.101236z"/>
  <path class="fil0" d="M5.58863 2.21069c0.256461,0.461114 0.384697,1.02183 0.384697,1.58093 0,0.559094 -0.128236,1.11981 -0.384697,1.58092l-0.230362 -0.128091c0.233732,-0.42024 0.350606,-0.935732 0.350606,-1.45283 0,-0.517094 -0.116874,-1.03259 -0.350606,-1.45283l0.230362 -0.128094z"/>
  <path class="fil0" d="M3.20033 2.33878c-0.233728,0.420244 -0.350598,0.935736 -0.350598,1.45283 0,0.517094 0.11687,1.03259 0.350598,1.45283l-0.230358 0.128091c-0.256461,-0.461106 -0.384693,-1.02182 -0.384693,-1.58092 0,-0.559094 0.128232,-1.11981 0.384693,-1.58093l0.230358 0.128094z"/>
  <polygon class="fil1" points="3.40677,3.82097 5.15184,3.82097 5.15184,4.08542 3.40677,4.08542 "/>
  <polygon class="fil1" points="3.74319,2.68724 4.15407,2.68724 4.2978,2.93899 4.46448,2.68724 4.84661,2.68724 4.53852,3.11757 4.86868,3.59059 4.46448,3.59059 4.2978,3.29963 4.10122,3.59059 3.72606,3.59059 4.05447,3.11757 "/>
  <path class="fil1" d="M3.76193 4.3115l0.365579 0 0.186421 0.601362 0.172772 -0.601362 0.341189 0 -0.358323 0.965488c-0.0406496,0.110055 -0.0824646,0.18439 -0.12515,0.222717 -0.0601063,0.0545906 -0.151575,0.0818858 -0.274693,0.0818858 -0.0499449,0 -0.126894,-0.0069685 -0.231425,-0.0206142l-0.0270039 -0.241591c0.0496535,0.0159685 0.105406,0.023811 0.166673,0.023811 0.0406496,0 0.073752,-0.00929528 0.0990157,-0.027878 0.0252638,-0.018874 0.046752,-0.0522677 0.0641732,-0.100469l-0.379228 -0.90335z"/>
 </g>
</svg>
