<?xml version="1.0" encoding="UTF-8" standalone="no"?>
<!DOCTYPE svg PUBLIC "-//W3C//DTD SVG 1.1//EN" "http://www.w3.org/Graphics/SVG/1.1/DTD/svg11.dtd">
<svg width="1145.00" height="527.00" viewBox="0.00 0.00 1145.00 527.00" xmlns="http://www.w3.org/2000/svg" xmlns:xlink="http://www.w3.org/1999/xlink">
<g stroke-linecap="round" transform="translate(-37.00, -280.00)" id="Layer_2">
<path d="M477.73,441.36 C476.89,440.04 472.03,432.20 470.91,427.73 C469.78,423.00 469.98,409.89 470.00,408.64 C470.00,408.64 472.73,313.22 472.73,313.22 C472.73,313.22 484.70,335.76 484.70,335.76 C484.70,335.76 500.41,366.94 500.41,366.94 C502.77,365.00 508.61,360.31 513.22,357.85 C518.60,355.03 533.18,350.39 541.10,349.46 C546.11,348.88 559.14,348.78 561.57,348.76 C561.57,348.76 595.87,298.35 595.87,298.35 C598.70,313.20 606.99,356.61 607.44,358.68 C608.46,363.28 609.75,365.41 612.26,369.28 C618.40,378.50 624.71,389.29 627.54,395.31 C630.68,402.08 633.82,415.06 634.43,422.99 C634.73,427.01 634.66,433.42 634.16,437.02 C633.71,440.11 631.84,446.66 630.25,449.40 C629.37,450.89 624.38,457.44 622.22,460.07 C618.91,464.15 614.95,468.01 611.57,470.18 C606.10,473.63 589.18,481.61 583.08,483.60 C576.94,485.57 562.58,487.56 555.52,487.77 C551.02,487.89 543.15,487.62 540.91,487.19 C537.30,486.48 533.60,484.40 532.64,483.88" fill="none" stroke="rgb(0, 0, 0)" stroke-width="10.00" stroke-opacity="1.00" stroke-linejoin="miter"/>
<path d="M414.23,511.90 C420.20,511.43 438.34,510.08 444.23,509.93 C453.01,509.74 470.37,510.68 477.97,511.68 C485.31,512.67 494.82,515.60 497.92,517.37 C500.97,519.14 505.64,526.03 506.73,527.25 C510.80,531.75 517.81,534.94 532.28,541.17 C539.06,544.04 554.55,550.56 560.77,552.14 C564.82,553.15 572.66,554.05 576.80,553.61 C580.62,553.17 587.83,550.51 590.60,548.91 C591.93,548.10 593.84,545.99 594.27,544.68 C594.63,543.36 593.48,540.18 592.10,538.51 C588.26,534.05 570.64,523.12 566.85,520.60 C562.53,517.66 560.21,515.25 557.48,510.89 C557.11,510.27 557.59,509.82 559.18,508.92 C561.16,507.22 565.89,503.30 568.34,502.29 C570.92,501.23 577.05,499.44 580.59,499.28 C584.10,499.14 589.64,500.42 592.71,501.78 C596.82,503.67 608.12,510.17 609.84,511.09 C612.09,512.26 617.22,514.42 620.03,515.14 C622.19,515.68 627.14,516.05 629.92,515.52 C631.40,515.23 634.46,514.00 635.63,512.78 C636.87,511.44 637.91,507.67 637.55,505.56 C637.17,503.51 633.86,498.93 630.66,496.19 C625.59,491.88 608.88,481.81 602.75,478.24" fill="none" stroke="rgb(0, 0, 0)" stroke-width="10.00" stroke-opacity="1.00" stroke-linejoin="miter"/>
<path d="M463.93,375.91 C463.28,375.81 449.07,370.59 445.46,369.29 C440.95,367.71 432.64,365.65 428.43,365.05 C422.53,364.25 407.96,364.66 400.43,365.88 C392.45,367.20 378.07,371.30 370.71,373.85 C361.25,377.27 348.31,383.01 341.49,386.91 C334.99,390.65 322.37,400.45 316.46,406.30 C310.43,412.37 301.03,423.29 297.65,428.71 C294.47,433.87 289.01,447.88 286.69,456.83 C285.99,459.67 283.93,469.11 283.17,472.68 C282.45,476.01 282.63,479.53 283.76,483.45 C287.22,494.09 290.21,501.36 295.47,508.13 C298.76,512.31 312.07,526.16 317.18,530.27 C322.89,534.85 333.83,541.54 338.80,543.15 C343.24,544.52 357.14,545.16 368.57,545.28 C385.62,545.29 411.83,544.73 418.40,544.33 C423.54,543.90 428.03,542.68 430.25,540.07 C431.12,539.00 432.49,535.84 432.60,534.64 C432.67,533.49 431.86,529.76 431.29,528.29 C429.87,524.85 425.14,520.10 421.62,518.03 C418.33,516.15 410.93,513.83 406.82,513.79 C404.35,513.79 397.50,514.79 395.85,515.01 C396.55,513.97 398.40,511.36 398.64,510.97 C399.72,509.20 400.68,506.30 400.86,504.15 C401.12,500.23 397.83,488.94 397.52,487.86" fill="none" stroke="rgb(0, 0, 0)" stroke-width="10.11" stroke-opacity="1.00" stroke-linejoin="miter"/>
<path d="M397.52,487.86 C396.43,486.86 389.97,481.08 385.82,479.08 C381.42,477.02 368.29,473.95 367.03,473.65" fill="none" stroke="rgb(0, 0, 0)" stroke-width="10.11" stroke-opacity="1.00" stroke-linejoin="miter"/>
<path d="M367.03,473.65 C367.03,473.65 367.03,473.65 367.03,473.65 Z" fill="none" stroke="rgb(0, 0, 0)" stroke-width="10.11" stroke-opacity="1.00" stroke-linejoin="miter"/>
<path d="M590.12,408.44 C593.19,408.48 601.84,408.59 604.96,408.06 C606.96,407.68 610.80,406.18 612.27,405.12 C614.08,403.78 617.60,398.99 618.47,397.86" fill="none" stroke="rgb(0, 0, 0)" stroke-width="10.00" stroke-opacity="1.00" stroke-linejoin="miter"/>
<path d="M517.31,429.69 C520.01,430.44 527.82,432.60 530.91,432.43 C534.79,432.17 541.77,428.90 545.47,425.94 C545.50,425.92 551.94,420.53 552.83,419.79" fill="none" stroke="rgb(0, 0, 0)" stroke-width="10.00" stroke-opacity="1.00" stroke-linejoin="miter"/>
<path d="M642.72,398.88 C642.72,398.88 657.40,386.59 657.40,386.59" fill="none" stroke="rgb(0, 0, 0)" stroke-width="10.00" stroke-opacity="1.00" stroke-linejoin="miter"/>
<path d="M646.47,410.83 C646.47,410.83 658.42,406.73 658.42,406.73" fill="none" stroke="rgb(0, 0, 0)" stroke-width="10.00" stroke-opacity="1.00" stroke-linejoin="miter"/>
<path d="M478.11,455.23 C478.11,455.23 505.77,452.15 505.77,452.15" fill="none" stroke="rgb(0, 0, 0)" stroke-width="10.00" stroke-opacity="1.00" stroke-linejoin="miter"/>
<path d="M494.84,469.57 C494.84,469.57 510.21,463.42 510.21,463.42" fill="none" stroke="rgb(0, 0, 0)" stroke-width="10.00" stroke-opacity="1.00" stroke-linejoin="miter"/>
<path d="M286.00,498.87 C281.26,503.25 269.45,514.20 264.46,519.91 C259.34,525.82 250.91,538.78 248.43,543.45 C246.25,547.62 243.93,553.57 243.04,557.01 C242.25,560.23 242.08,566.17 242.51,570.53 C242.84,573.76 244.67,582.17 245.62,584.20 C246.39,585.78 248.51,588.26 250.02,589.36 C253.68,591.92 271.45,598.82 275.98,600.05 C279.36,600.96 297.73,604.78 304.73,606.41 C315.09,609.00 326.77,612.62 333.22,615.81 C338.85,618.63 351.10,627.51 355.63,632.02 C358.42,634.81 362.90,639.91 364.85,642.75 C366.88,645.76 369.69,652.29 370.90,656.82 C372.87,664.35 374.61,678.47 373.79,684.67 C372.76,692.04 368.51,705.36 365.43,710.52 C363.75,713.29 359.23,718.41 356.44,720.93 C353.35,723.69 348.78,726.89 345.61,728.50 C342.82,729.89 336.70,731.87 333.13,732.39 C329.25,732.93 321.23,733.16 317.06,732.78 C310.19,732.13 292.78,727.73 286.83,724.70 C276.08,719.15 256.61,703.99 255.93,703.36 C254.52,702.01 253.34,699.66 253.44,698.22 C253.61,696.79 255.26,693.97 256.95,692.02 C257.24,691.70 260.32,688.44 261.46,687.20" fill="none" stroke="rgb(0, 0, 0)" stroke-width="17.00" stroke-opacity="1.00" stroke-linejoin="miter"/>
<path d="M439.77,552.97 C439.13,581.99 437.75,647.93 437.01,684.84 C436.92,691.12 436.71,708.79 437.56,712.31 C437.83,713.33 439.11,715.94 439.77,716.75 C440.91,718.09 443.84,720.30 445.68,721.16 C447.65,722.03 450.87,722.46 453.16,722.17 C457.26,721.57 463.01,718.59 465.39,716.32 C469.04,712.73 476.88,701.13 478.84,698.22" fill="none" stroke="rgb(0, 0, 0)" stroke-width="17.00" stroke-opacity="1.00" stroke-linejoin="miter"/>
<path d="M396.19,628.60 C409.96,626.58 441.38,621.86 459.03,619.15 C460.64,618.88 469.84,617.31 473.24,615.87 C474.24,615.45 476.50,613.68 477.34,613.07" fill="none" stroke="rgb(0, 0, 0)" stroke-width="17.00" stroke-opacity="1.00" stroke-linejoin="miter"/>
<path d="M538.94,606.06 C538.94,606.06 539.95,701.73 539.95,701.73" fill="none" stroke="rgb(0, 0, 0)" stroke-width="17.00" stroke-opacity="1.00" stroke-linejoin="miter"/>
<path d="M539.95,647.13 C541.52,635.08 543.67,624.49 547.66,617.12 C549.44,613.90 561.51,597.18 565.64,593.00 C568.36,590.31 573.25,587.44 576.77,586.79 C579.05,586.40 587.55,585.64 588.29,585.78 C591.85,586.51 601.58,595.18 602.55,596.04" fill="none" stroke="rgb(0, 0, 0)" stroke-width="17.00" stroke-opacity="1.00" stroke-linejoin="miter"/>
<path d="M635.00,588.00 C634.42,602.72 631.46,631.03 629.84,646.00 C629.13,653.87 627.70,671.67 627.86,676.13 C627.96,678.53 628.95,684.65 630.00,688.17 C631.02,691.56 634.12,699.59 635.79,702.00 C637.41,704.27 642.03,708.01 644.40,708.88 C645.90,709.40 648.46,709.54 650.21,709.25 C654.02,708.53 659.19,705.58 661.55,702.91 C663.77,700.32 671.47,688.55 676.42,680.67 C680.02,674.93 684.93,664.43 688.74,655.31 C692.44,646.10 696.77,632.68 698.47,624.70 C700.30,615.98 702.88,592.07 703.00,591.00" fill="none" stroke="rgb(0, 0, 0)" stroke-width="17.00" stroke-opacity="1.00" stroke-linejoin="miter"/>
<path d="M703.00,591.50 C702.07,605.00 699.93,636.70 698.72,654.89 C698.06,665.93 697.60,677.55 698.66,681.41 C699.90,685.73 705.39,696.76 706.00,698.00" fill="none" stroke="rgb(0, 0, 0)" stroke-width="17.00" stroke-opacity="1.00" stroke-linejoin="miter"/>
<path d="M816.00,590.50 C815.35,589.14 813.70,585.50 813.51,585.12 C812.38,582.95 810.21,580.49 808.50,579.50 C806.04,578.15 798.69,578.01 794.58,578.94 C790.86,579.83 784.94,582.92 781.06,585.88 C775.07,590.44 774.60,590.81 769.31,595.17 C765.92,597.96 761.57,602.70 759.60,605.77 C757.59,608.96 754.31,615.52 753.08,618.99 C751.88,622.47 750.67,629.43 750.46,633.43 C749.99,644.84 749.71,658.49 750.04,662.01 C750.43,665.60 752.96,672.19 755.53,675.61 C757.90,678.68 763.57,682.98 767.62,685.25 C770.94,687.08 778.81,689.71 781.05,689.64 C782.59,689.56 785.01,688.57 786.17,687.60 C787.48,686.43 798.54,670.55 802.58,664.60 C807.02,657.98 814.07,644.21 815.71,638.67 C818.72,628.32 822.56,594.18 823.50,585.50" fill="none" stroke="rgb(0, 0, 0)" stroke-width="17.00" stroke-opacity="1.00" stroke-linejoin="miter"/>
<path d="M824.50,590.00 C826.20,604.16 830.37,640.39 831.41,652.71 C832.14,664.74 832.19,676.66 832.09,683.56 C831.86,690.47 830.83,707.17 830.30,711.46 C829.31,719.34 826.04,734.19 824.01,742.23 C821.04,752.92 816.41,766.95 813.73,771.87 C812.71,773.73 808.59,779.68 807.00,782.00 C805.92,783.48 800.64,790.60 798.00,792.00 C795.28,793.39 786.27,794.74 784.00,794.00 C781.33,793.06 779.06,788.97 778.50,788.00" fill="none" stroke="rgb(0, 0, 0)" stroke-width="17.00" stroke-opacity="1.00" stroke-linejoin="miter"/>
<path d="M938.29,582.92 C936.88,579.95 933.15,572.36 931.13,570.25 C929.99,569.11 927.21,567.51 925.78,567.17 C922.97,566.57 916.51,567.92 912.85,569.36 C909.68,570.63 903.06,574.00 899.90,575.99 C896.87,577.92 891.53,582.52 889.26,584.95 C886.89,587.53 882.69,593.49 880.99,596.69 C878.03,602.36 872.98,618.53 872.18,625.90 C871.42,633.19 872.89,651.06 874.38,656.20 C875.77,660.84 879.26,666.63 882.05,669.31 C884.68,671.76 891.93,675.33 895.87,676.52 C897.50,676.99 901.39,677.74 902.48,677.69 C904.12,677.56 906.69,676.44 907.85,675.33 C910.07,673.13 924.84,654.78 926.61,652.31 C931.30,645.71 937.64,632.31 939.75,624.98 C943.87,610.52 945.95,582.88 946.56,574.10" fill="none" stroke="rgb(0, 0, 0)" stroke-width="17.00" stroke-opacity="1.00" stroke-linejoin="miter"/>
<path d="M947.11,573.55 C948.79,587.03 952.84,622.47 953.75,635.12 C954.17,643.12 954.84,659.00 954.92,666.69 C954.80,674.13 954.04,689.44 952.92,697.58 C952.01,704.09 948.44,720.52 946.82,727.33 C945.74,731.75 939.90,750.51 937.91,755.46 C936.07,759.82 933.39,765.08 931.11,768.29 C929.04,771.17 923.95,776.02 920.72,777.66 C918.95,778.53 915.60,779.58 913.87,779.79 C912.06,779.96 908.77,779.05 907.05,777.85 C906.24,777.26 903.08,774.12 901.93,773.00" fill="none" stroke="rgb(0, 0, 0)" stroke-width="17.00" stroke-opacity="1.00" stroke-linejoin="miter"/>
<path d="M1015.50,486.00 C1013.83,497.72 1009.82,526.74 1007.84,544.50 C1006.34,561.65 1004.53,594.86 1004.09,610.52 C1004.03,617.14 1004.00,634.70 1004.56,641.65 C1004.97,646.52 1006.11,652.36 1007.15,655.22 C1007.62,656.36 1009.18,656.85 1010.28,655.77 C1010.86,655.18 1013.53,650.60 1014.50,649.00" fill="none" stroke="rgb(0, 0, 0)" stroke-width="17.00" stroke-opacity="1.00" stroke-linejoin="miter"/>
<path d="M1059.00,595.00 C1071.01,592.05 1082.31,588.97 1085.53,586.36 C1088.60,583.78 1097.86,569.42 1100.52,563.04 C1102.20,558.97 1104.37,552.04 1104.50,550.00 C1104.61,547.80 1104.06,545.29 1103.08,543.54 C1102.21,542.11 1100.07,540.36 1098.39,539.86 C1096.70,539.40 1093.39,539.58 1091.31,540.12 C1087.30,541.27 1082.14,544.78 1079.25,547.66 C1077.06,549.88 1072.16,555.79 1070.24,558.88 C1069.40,560.25 1057.89,579.69 1056.50,583.50 C1054.90,587.99 1051.32,610.29 1051.76,614.65 C1052.16,618.10 1055.45,623.31 1058.85,626.86 C1061.48,629.56 1067.87,634.83 1070.26,636.31 C1073.42,638.21 1078.97,639.73 1084.71,640.76 C1088.50,641.50 1098.03,643.22 1099.90,643.27 C1103.60,643.33 1110.99,641.06 1115.07,639.15 C1119.44,637.06 1124.77,633.78 1127.81,631.29 C1132.57,627.31 1144.90,612.20 1147.15,609.15 C1151.83,602.76 1159.09,588.31 1161.97,579.75 C1164.16,572.90 1166.67,565.03 1167.00,564.00" fill="none" stroke="rgb(0, 0, 0)" stroke-width="17.00" stroke-opacity="1.00" stroke-linejoin="miter"/>
<path d="M70.37,614.07 C72.60,629.86 79.29,677.53 80.71,690.65 C81.51,699.34 81.16,708.49 80.00,708.89 C79.32,709.05 77.42,706.80 76.15,704.34 C73.57,699.26 63.60,671.39 61.33,663.88 C59.52,657.82 57.12,647.77 56.54,643.83 C56.01,639.94 56.18,634.29 56.89,632.56 C57.62,630.90 60.25,629.60 62.11,629.93 C64.00,630.30 68.94,633.00 71.97,635.32 C77.84,639.85 94.35,656.61 102.18,664.54 C108.79,670.99 124.54,686.04 129.26,689.78 C134.30,693.75 140.84,697.19 143.63,697.54 C146.10,697.79 149.90,696.46 151.28,694.78 C152.71,692.95 154.12,686.39 154.11,681.48 C154.05,674.23 151.10,655.06 149.57,646.61 C146.99,633.33 145.07,620.95 144.58,613.61 C144.29,608.68 144.75,598.50 146.19,594.51 C146.57,593.49 150.13,586.39 151.11,584.44" fill="none" stroke="rgb(255, 17, 0)" stroke-width="20.00" stroke-opacity="1.00" stroke-linejoin="miter"/>
<path d="M184.44,596.30 C188.33,584.68 191.72,575.35 195.98,570.75 C198.36,568.23 205.38,564.93 208.15,564.44 C211.08,563.98 217.38,565.02 220.57,566.47 C223.58,567.88 229.33,572.58 231.55,574.92 C234.35,577.92 238.41,584.66 239.75,588.08 C242.15,594.42 245.42,609.66 245.93,616.30 C246.48,623.98 245.09,640.94 243.70,646.67 C242.70,650.74 239.99,657.66 238.14,661.15 C236.03,665.02 232.29,670.01 229.30,672.46 C225.90,675.17 219.84,677.44 215.20,677.67 C212.87,677.75 209.33,677.11 207.41,676.30 C205.49,675.44 200.62,671.01 198.99,668.06 C196.26,663.00 191.17,645.06 188.59,634.19 C186.69,625.64 183.88,612.99 182.96,608.89" fill="none" stroke="rgb(255, 17, 0)" stroke-width="20.00" stroke-opacity="1.00" stroke-linejoin="miter"/>
<path d="M579.34,431.82 C579.34,431.82 585.54,430.17 585.54,430.17" fill="none" stroke="rgb(0, 0, 0)" stroke-width="8.00" stroke-opacity="1.00" stroke-linejoin="miter"/>
<path d="M582.50,434.09 C582.49,438.35 582.11,443.13 579.79,445.14 C577.51,446.98 571.51,445.71 569.09,445.00" fill="none" stroke="rgb(0, 0, 0)" stroke-width="6.00" stroke-opacity="1.00" stroke-linejoin="miter"/>
<path d="M583.75,435.00 C584.28,436.07 585.73,439.04 586.17,439.76 C587.07,441.21 589.55,442.59 591.34,442.55 C594.37,442.40 596.96,438.89 597.75,437.50" fill="none" stroke="rgb(0, 0, 0)" stroke-width="6.00" stroke-opacity="1.00" stroke-linejoin="miter"/>
</g>
</svg>
