<?xml version="1.0" encoding="UTF-8"?>
<!DOCTYPE svg PUBLIC "-//W3C//DTD SVG 1.1//EN" "http://www.w3.org/Graphics/SVG/1.1/DTD/svg11.dtd">
<!-- Creator: CorelDRAW -->
<svg xmlns="http://www.w3.org/2000/svg" xml:space="preserve" width="6.82666in" height="6.82666in" style="shape-rendering:geometricPrecision; text-rendering:geometricPrecision; image-rendering:optimizeQuality; fill-rule:evenodd; clip-rule:evenodd"
viewBox="0 0 6.82666 6.82666"
 xmlns:xlink="http://www.w3.org/1999/xlink">
 <defs>
  <style type="text/css">
    .fil2 {fill:none}
    .fil1 {fill:#64B5F6}
    .fil0 {fill:#424242;fill-rule:nonzero}
  </style>
 </defs>
 <g id="Layer_x0020_1">
  <metadata id="CorelCorpID_0Corel-Layer"/>
  <polygon class="fil0" points="1.4224,1.57416 1.11725,1.57416 1.11725,5.2525 1.4224,5.2525 1.4224,5.51643 0.985291,5.51643 0.853331,5.51643 0.853331,5.38446 0.853331,1.4422 0.853331,1.31024 0.985291,1.31024 1.4224,1.31024 "/>
  <path class="fil0" d="M2.46624 2.27728l-0.500209 0c0.00572835,-0.0494606 0.0231969,-0.0958504 0.0522598,-0.139445 0.0290591,-0.0434528 0.0835512,-0.0948701 0.163472,-0.154114 0.0489055,-0.036189 0.080063,-0.0638543 0.0937559,-0.0825748 0.0136929,-0.0188622 0.0205394,-0.036748 0.0205394,-0.0536535 0,-0.0183031 -0.00684646,-0.0339528 -0.0202598,-0.0469488 -0.0135551,-0.0128543 -0.0305984,-0.0194213 -0.051,-0.0194213 -0.021378,0 -0.0387008,0.00670866 -0.0522559,0.020122 -0.0134134,0.0132717 -0.0224961,0.0368858 -0.0272441,0.0708386l-0.166972 -0.0135551c0.00656693,-0.0469449 0.0185866,-0.0835512 0.0360512,-0.109961 0.0174646,-0.0262677 0.0420551,-0.0465276 0.0739134,-0.0605 0.0317165,-0.0141102 0.0757283,-0.0210984 0.132039,-0.0210984 0.0585433,0 0.104232,0.00670866 0.136925,0.0199803 0.0325591,0.0134134 0.0582677,0.0339528 0.0768504,0.0616181 0.0187205,0.0278071 0.0280827,0.0588228 0.0280827,0.0931969 0,0.0366063 -0.0107598,0.0715354 -0.0321339,0.104791 -0.021378,0.0332559 -0.0603622,0.0698622 -0.116811,0.109681 -0.0336732,0.0231969 -0.0560276,0.0394016 -0.0673465,0.0487638 -0.011315,0.00922441 -0.0247323,0.021378 -0.0399606,0.0363307l0.260303 0 0 0.135949z"/>
  <path class="fil0" d="M3.56437 4.45648l0 0.610311 -0.16865 0 0 -0.399886c-0.0272441,0.0206772 -0.0536535,0.0374449 -0.0792205,0.0502992 -0.0254291,0.0128543 -0.0574252,0.0251496 -0.0959921,0.0368858l0 -0.136787c0.0568701,-0.0183031 0.100882,-0.0402402 0.132319,-0.065811 0.0312992,-0.0257087 0.0558898,-0.0574252 0.0736339,-0.0950118l0.137909 0z"/>
  <rect class="fil1" x="1.85458" y="3.01636" width="0.701029" height="0.701029"/>
  <rect class="fil1" x="1.85458" y="4.41112" width="0.701029" height="0.701029"/>
  <rect class="fil1" x="3.06282" y="1.62161" width="0.701029" height="0.701029"/>
  <rect class="fil1" x="3.06282" y="3.01636" width="0.701029" height="0.701029"/>
  <rect class="fil1" x="4.27105" y="4.41112" width="0.701029" height="0.701029"/>
  <polygon class="fil0" points="5.40426,1.31024 5.84137,1.31024 5.97333,1.31024 5.97333,1.4422 5.97333,5.38446 5.97333,5.51643 5.84137,5.51643 5.40426,5.51643 5.40426,5.2525 5.70941,5.2525 5.70941,1.57416 5.40426,1.57416 "/>
  <path class="fil0" d="M4.55498 3.24546l-0.157606 -0.0282244c0.0131339,-0.0501614 0.0382835,-0.0887244 0.0755906,-0.115409 0.0373031,-0.026689 0.0899803,-0.0401024 0.158165,-0.0401024 0.0783858,0 0.134972,0.0145315 0.169902,0.0437323 0.0349331,0.0292047 0.0523976,0.0659528 0.0523976,0.110102 0,0.0259882 -0.00712598,0.0494646 -0.0212402,0.0704213 -0.014248,0.0210984 -0.035626,0.0395433 -0.0642717,0.0553307 0.0231969,0.00572835 0.0409409,0.012437 0.0532362,0.0199803 0.0198386,0.0122953 0.0353504,0.0285039 0.0463858,0.048622 0.0110394,0.0199803 0.0166299,0.043874 0.0166299,0.0718189 0,0.0349291 -0.00922441,0.0683268 -0.0273858,0.100461 -0.0183031,0.0319961 -0.0447126,0.0567283 -0.0790827,0.0740551 -0.034374,0.0173228 -0.0795039,0.0259882 -0.135531,0.0259882 -0.0544921,0 -0.0975276,-0.00642913 -0.129106,-0.0191417 -0.0315787,-0.0128543 -0.0574252,-0.0317165 -0.0778268,-0.056311 -0.0202598,-0.0247283 -0.0359055,-0.055748 -0.0468071,-0.0931929l0.166551 -0.0220787c0.00656693,0.0335354 0.0167677,0.0568701 0.0305984,0.0698622 0.0136929,0.0128543 0.0312992,0.0194213 0.0525354,0.0194213 0.0223583,0 0.0410787,-0.00824409 0.0558898,-0.0245906 0.014811,-0.0163465 0.0223583,-0.0382835 0.0223583,-0.0655315 0,-0.0278031 -0.00726772,-0.0493189 -0.0215197,-0.064689 -0.0143898,-0.0152323 -0.033811,-0.0229173 -0.0584055,-0.0229173 -0.0129921,0 -0.0310157,0.00335433 -0.0539331,0.00978346l0.00852362 -0.119047c0.0093622,0.00139764 0.0164882,0.00209843 0.0216575,0.00209843 0.021937,0 0.0401024,-0.00698819 0.0547717,-0.0209606 0.0145315,-0.0138307 0.0217992,-0.0304567 0.0217992,-0.0494606 0,-0.0183031 -0.00545276,-0.0329764 -0.0163504,-0.043874 -0.0108976,-0.0108976 -0.0258465,-0.0163465 -0.0449882,-0.0163465 -0.0197008,0 -0.0356299,0.00600787 -0.0479252,0.0177441 -0.0122953,0.011878 -0.0205394,0.0326969 -0.0250118,0.0624567z"/>
  <path class="fil0" d="M4.67173 2.16509l-0.30376 0 0 -0.137071 0.30376 -0.361043 0.145311 0 0 0.368728 0.075311 0 0 0.129386 -0.075311 0 0 0.112197 -0.145311 0 0 -0.112197zm0 -0.129386l0 -0.188626 -0.160543 0.188626 0.160543 0z"/>
 </g>
 <rect class="fil2" width="6.82666" height="6.82666"/>
</svg>
